<svg width="21" height="21" viewBox="0 0 21 21" fill="none" xmlns="http://www.w3.org/2000/svg">
<path fill-rule="evenodd" clip-rule="evenodd" d="M18.75 10.5C18.75 12.688 17.8808 14.7865 16.3336 16.3336C14.7865 17.8808 12.688 18.75 10.5 18.75C8.31196 18.75 6.21354 17.8808 4.66637 16.3336C3.11919 14.7865 2.25 12.688 2.25 10.5C2.25 8.31196 3.11919 6.21354 4.66637 4.66637C6.21354 3.11919 8.31196 2.25 10.5 2.25C12.688 2.25 14.7865 3.11919 16.3336 4.66637C17.8808 6.21354 18.75 8.31196 18.75 10.5ZM21 10.5C21 13.2848 19.8938 15.9555 17.9246 17.9246C15.9555 19.8938 13.2848 21 10.5 21C7.71523 21 5.04451 19.8938 3.07538 17.9246C1.10625 15.9555 0 13.2848 0 10.5C0 7.71523 1.10625 5.04451 3.07538 3.07538C5.04451 1.10625 7.71523 0 10.5 0C13.2848 0 15.9555 1.10625 17.9246 3.07538C19.8938 5.04451 21 7.71523 21 10.5ZM8.505 12.9975C8.36326 12.7459 8.13023 12.5585 7.85413 12.474C7.57803 12.3895 7.28002 12.4144 7.02176 12.5435C6.7635 12.6726 6.56478 12.8961 6.46673 13.1677C6.36868 13.4393 6.3788 13.7382 6.495 14.0025C7.0995 15.216 8.673 16.125 10.5 16.125C12.327 16.125 13.9005 15.216 14.505 14.0025C14.5798 13.8697 14.6269 13.7231 14.6433 13.5716C14.6598 13.42 14.6452 13.2667 14.6006 13.121C14.556 12.9752 14.4822 12.8401 14.3838 12.7237C14.2854 12.6073 14.1643 12.5122 14.028 12.444C13.8917 12.3759 13.7429 12.3361 13.5907 12.3272C13.4386 12.3183 13.2862 12.3403 13.1428 12.3921C12.9995 12.4439 12.8681 12.5242 12.7568 12.6283C12.6454 12.7324 12.5563 12.858 12.495 12.9975C12.3495 13.284 11.673 13.875 10.5 13.875C9.327 13.875 8.6505 13.284 8.505 12.9975ZM13.5 10.5C13.2016 10.5 12.9155 10.3815 12.7045 10.1705C12.4935 9.95952 12.375 9.67337 12.375 9.375V7.875C12.375 7.57663 12.4935 7.29048 12.7045 7.0795C12.9155 6.86853 13.2016 6.75 13.5 6.75C13.7984 6.75 14.0845 6.86853 14.2955 7.0795C14.5065 7.29048 14.625 7.57663 14.625 7.875V9.375C14.625 9.67337 14.5065 9.95952 14.2955 10.1705C14.0845 10.3815 13.7984 10.5 13.5 10.5ZM6.375 9.375C6.375 9.67337 6.49353 9.95952 6.7045 10.1705C6.91548 10.3815 7.20163 10.5 7.5 10.5C7.79837 10.5 8.08452 10.3815 8.2955 10.1705C8.50647 9.95952 8.625 9.67337 8.625 9.375V7.875C8.625 7.57663 8.50647 7.29048 8.2955 7.0795C8.08452 6.86853 7.79837 6.75 7.5 6.75C7.20163 6.75 6.91548 6.86853 6.7045 7.0795C6.49353 7.29048 6.375 7.57663 6.375 7.875V9.375Z" fill="black"/>
</svg>
